<?xml version="1.0" standalone="no"?>
<!DOCTYPE svg PUBLIC "-//W3C//DTD SVG 20010904//EN"
 "http://www.w3.org/TR/2001/REC-SVG-20010904/DTD/svg10.dtd">
<svg version="1.0" xmlns="http://www.w3.org/2000/svg"
 width="1280.000000pt" height="242.000000pt" viewBox="0 0 1280.000000 242.000000"
 preserveAspectRatio="xMidYMid meet">

<g transform="translate(0.000000,242.000000) scale(0.100000,-0.100000)"
fill="#000000" stroke="none">
<path d="M860 1863 c-41 -14 -84 -29 -95 -33 -52 -19 -124 -40 -136 -40 -8 0
-25 -17 -39 -37 -23 -34 -178 -244 -252 -342 -59 -78 -77 -59 152 -163 30 -14
77 -35 103 -47 27 -12 56 -21 65 -19 9 2 31 23 50 48 19 25 40 45 46 45 8 0
12 -116 16 -405 l5 -405 520 0 520 0 3 408 c1 254 6 407 12 407 5 0 27 -23 47
-51 43 -57 52 -58 146 -15 28 13 77 35 107 49 132 58 160 72 160 79 0 13 -32
59 -177 253 l-141 190 -64 19 c-34 10 -72 22 -83 26 -11 4 -47 15 -80 25 -33
9 -68 21 -77 26 -38 19 -58 7 -151 -88 -52 -54 -108 -114 -125 -134 l-32 -36
-2 -199 -3 -199 -60 0 -60 0 -5 202 c-6 232 14 186 -154 360 -67 69 -106 103
-120 102 -12 -1 -55 -12 -96 -26z m508 -882 c11 -7 0 -47 -54 -195 -66 -182
-68 -186 -96 -186 -15 0 -28 5 -28 11 0 6 30 94 67 195 67 185 75 198 111 175z
m107 -143 c82 -41 83 -58 5 -104 -68 -41 -90 -43 -90 -9 0 17 9 31 30 44 l31
18 -31 13 c-24 10 -30 19 -30 41 0 16 4 29 10 29 5 0 39 -15 75 -32z m-285 -1
c0 -17 -10 -28 -32 -39 l-33 -15 33 -17 c23 -12 32 -23 32 -41 0 -34 -20 -32
-91 7 -77 43 -79 64 -6 100 67 35 97 36 97 5z"/>
<path d="M2773 1556 c-129 -41 -232 -173 -268 -344 -18 -85 -18 -139 0 -227
31 -149 121 -271 242 -328 59 -27 79 -32 148 -32 70 0 88 4 145 32 36 18 84
52 108 76 l43 44 -67 77 c-37 42 -73 76 -80 76 -6 0 -31 -9 -55 -20 -88 -39
-150 -15 -195 75 -23 48 -26 64 -23 133 5 94 31 141 97 173 l43 21 58 -21 c32
-11 64 -21 72 -21 8 0 45 36 83 81 78 92 78 90 -15 150 -98 63 -237 85 -336
55z"/>
<path d="M5015 1544 c-121 -14 -235 -27 -252 -30 l-33 -5 0 -122 0 -122 -30
51 c-63 110 -181 190 -320 216 -55 10 -328 5 -382 -8 l-28 -6 -1 -157 c-1
-145 -2 -153 -13 -106 -19 77 -53 134 -120 201 -86 86 -146 108 -281 102 -84
-4 -109 -9 -155 -32 -135 -67 -227 -211 -250 -389 -26 -210 66 -404 229 -485
50 -24 66 -27 156 -26 135 1 195 24 279 108 67 65 131 178 142 247 14 85 24
18 24 -157 l0 -184 65 0 c130 0 321 55 431 125 110 69 204 177 235 270 l14 40
6 -90 c4 -49 7 -152 8 -229 1 -138 1 -138 24 -133 56 14 402 68 491 76 54 6
100 12 103 15 11 11 -21 218 -35 223 -7 3 -68 -2 -135 -11 -177 -23 -167 -25
-167 33 0 57 -12 51 154 75 54 8 99 16 100 18 2 2 -2 43 -7 91 -10 82 -12 88
-31 83 -47 -10 -207 -29 -212 -24 -3 3 -2 28 2 56 6 48 8 50 43 56 20 3 84 9
143 13 59 3 111 9 117 12 6 4 4 44 -8 116 l-17 110 -35 1 c-18 1 -133 -9 -254
-22z m-1393 -254 c35 -27 70 -113 76 -187 9 -116 -33 -203 -110 -223 -35 -10
-46 -8 -86 12 -67 34 -84 72 -79 173 8 174 113 293 199 225z m749 -21 c122
-61 91 -238 -57 -325 -24 -14 -49 -22 -55 -18 -9 5 -10 52 -5 182 3 96 9 178
11 183 8 11 62 0 106 -22z"/>
<path d="M5775 1552 c-88 -30 -147 -72 -251 -176 -118 -119 -166 -200 -168
-289 -3 -137 88 -170 358 -131 121 17 171 10 164 -23 -5 -24 -75 -61 -142 -75
-48 -9 -66 -8 -116 7 -33 10 -62 16 -64 14 -7 -9 -87 -222 -83 -225 1 -2 29
-10 62 -19 73 -19 183 -19 251 -1 141 37 300 160 350 271 50 108 18 205 -75
236 -44 15 -144 17 -271 6 -78 -7 -99 -6 -115 6 -19 14 -19 17 -3 50 22 46 98
85 134 68 13 -6 24 -14 24 -18 0 -5 4 -14 9 -21 8 -13 35 -7 245 55 16 4 18
12 12 58 -13 109 -55 182 -123 211 -44 19 -137 17 -198 -4z"/>
<path d="M6574 1563 c-61 -5 -53 16 -80 -221 -9 -84 -19 -150 -22 -147 -3 2
-19 77 -37 165 -18 88 -35 163 -38 167 -4 3 -72 -7 -152 -22 -126 -23 -145
-30 -139 -44 47 -112 151 -512 184 -707 12 -71 23 -130 24 -132 2 -1 63 1 138
4 l135 7 17 111 c27 176 28 180 36 165 4 -8 15 -76 25 -151 21 -162 0 -149
194 -115 l124 22 23 135 c36 217 122 562 153 618 4 8 11 -168 15 -389 3 -222
8 -404 9 -405 1 -2 92 13 202 31 249 43 388 55 380 33 -5 -12 19 -20 127 -41
194 -39 183 -42 198 48 l13 74 41 5 c135 16 125 18 136 -25 5 -21 15 -57 20
-79 6 -22 12 -40 15 -40 2 0 55 11 119 25 154 33 156 33 156 -10 0 -19 2 -35
5 -35 4 0 62 13 243 55 l24 6 -8 136 c-4 80 -3 134 2 130 5 -3 61 -73 124
-156 63 -82 122 -150 131 -151 9 0 54 29 100 65 66 51 85 61 87 47 8 -48 14
-63 37 -91 54 -63 181 -63 244 0 57 56 47 147 -21 189 -43 27 -165 25 -196 -3
-19 -18 -22 -15 -133 108 -63 70 -114 131 -114 135 0 5 27 31 59 57 76 62 115
129 122 214 5 54 2 71 -18 109 -26 50 -71 85 -132 101 -63 17 -310 5 -442 -21
l-111 -22 5 -351 c2 -194 0 -362 -5 -375 -7 -18 -18 11 -61 150 -58 191 -123
444 -143 556 -15 86 7 81 -238 49 l-165 -22 -27 -130 c-32 -157 -97 -407 -137
-530 l-29 -90 -8 78 c-5 53 -12 80 -22 84 -8 3 -69 -2 -136 -11 -177 -23 -167
-25 -167 33 0 57 -12 51 154 75 54 8 99 16 100 18 2 2 -2 43 -7 91 -10 82 -12
88 -31 83 -47 -10 -207 -29 -212 -24 -3 3 -2 28 2 56 6 48 8 50 43 56 20 3 84
9 143 13 59 3 111 9 117 12 13 8 -21 223 -36 228 -6 2 -114 -8 -241 -22 -282
-31 -286 -31 -449 -3 -73 12 -135 20 -138 16 -4 -3 -21 -89 -38 -191 -18 -102
-35 -188 -38 -191 -3 -3 -16 69 -28 161 -12 93 -25 183 -28 201 l-5 32 -72 -2
c-39 -1 -94 -3 -122 -5z m2421 -217 c32 -23 10 -63 -63 -113 -35 -24 -67 -43
-73 -43 -10 0 -11 44 -1 110 6 36 12 45 32 51 42 12 85 10 105 -5z m-789 -253
c13 -59 23 -114 24 -120 0 -9 -17 -13 -51 -13 l-51 0 5 33 c28 157 40 217 44
213 3 -2 15 -53 29 -113z"/>
<path d="M9913 1556 c-129 -41 -232 -173 -268 -344 -18 -85 -18 -139 0 -227
31 -149 121 -271 242 -328 59 -27 79 -32 148 -32 70 0 88 4 145 32 36 18 84
52 108 76 l43 44 -67 77 c-37 42 -73 76 -80 76 -6 0 -31 -9 -55 -20 -88 -39
-150 -15 -195 75 -23 48 -26 64 -23 133 5 94 31 141 97 173 l43 21 58 -21 c32
-11 64 -21 72 -21 8 0 45 36 83 81 78 92 78 90 -15 150 -98 63 -237 85 -336
55z"/>
<path d="M10583 1550 c-118 -28 -235 -145 -284 -285 -87 -248 0 -515 200 -613
50 -24 66 -27 156 -26 135 1 195 24 279 108 131 130 185 319 145 508 -27 125
-134 256 -242 296 -60 23 -185 29 -254 12z m159 -260 c35 -27 70 -113 76 -187
9 -116 -33 -203 -110 -223 -35 -10 -46 -8 -86 12 -67 34 -84 72 -79 173 8 174
113 293 199 225z"/>
<path d="M11380 1536 c-63 -12 -121 -25 -127 -29 -7 -5 -13 -19 -13 -32 0 -86
-90 -480 -156 -685 -23 -74 -42 -135 -41 -136 16 -9 280 -45 286 -38 4 5 21
85 36 179 26 159 42 231 45 195 0 -8 11 -94 23 -190 l23 -175 119 3 c66 2 123
7 126 10 4 4 17 85 29 180 13 95 26 170 30 165 4 -4 24 -87 45 -183 20 -96 40
-178 44 -182 6 -7 276 34 286 43 2 3 -16 68 -41 144 -59 186 -119 428 -149
600 -14 77 -25 143 -25 148 0 5 -26 6 -57 3 -32 -3 -92 -8 -134 -11 l-77 -6
-21 -142 c-29 -192 -32 -203 -41 -186 -4 8 -19 89 -35 182 -23 136 -31 167
-44 166 -9 0 -68 -11 -131 -23z"/>
<path d="M1285 1510 c-3 -5 -1 -10 4 -10 6 0 11 5 11 10 0 6 -2 10 -4 10 -3 0
-8 -4 -11 -10z"/>
<path d="M1285 1430 c4 -6 11 -8 16 -5 14 9 11 15 -7 15 -8 0 -12 -5 -9 -10z"/>
<path d="M1288 1353 c7 -3 16 -2 19 1 4 3 -2 6 -13 5 -11 0 -14 -3 -6 -6z"/>
</g>
</svg>
